<mxfile host="app.diagrams.net" modified="2020-06-30T01:14:34.149Z" agent="5.0 (Windows NT 10.0; WOW64) AppleWebKit/537.36 (KHTML, like Gecko) Chrome/76.0.3809.87 Safari/537.36" etag="5eE4ALKG6UtiadZnT1KB" version="13.3.5" type="github">
  <diagram id="E-PsfTqyKA0qvFASXpcd" name="第 1 页">
    <mxGraphModel dx="5331" dy="5880" grid="1" gridSize="10" guides="1" tooltips="1" connect="1" arrows="1" fold="1" page="1" pageScale="1" pageWidth="3300" pageHeight="4681" math="0" shadow="0">
      <root>
        <mxCell id="0" />
        <mxCell id="1" parent="0" />
        <mxCell id="CcnFUKyNW-bvwAYM3Ugy-3" style="edgeStyle=orthogonalEdgeStyle;rounded=0;orthogonalLoop=1;jettySize=auto;html=1;fontSize=26;" edge="1" parent="1" source="CcnFUKyNW-bvwAYM3Ugy-1" target="CcnFUKyNW-bvwAYM3Ugy-2">
          <mxGeometry relative="1" as="geometry" />
        </mxCell>
        <mxCell id="CcnFUKyNW-bvwAYM3Ugy-1" value="&lt;font style=&quot;font-size: 26px&quot;&gt;SPi&lt;/font&gt;" style="rounded=0;whiteSpace=wrap;html=1;fontSize=26;" vertex="1" parent="1">
          <mxGeometry x="300" y="-10" width="120" height="60" as="geometry" />
        </mxCell>
        <mxCell id="CcnFUKyNW-bvwAYM3Ugy-6" value="" style="edgeStyle=orthogonalEdgeStyle;rounded=0;orthogonalLoop=1;jettySize=auto;html=1;fontSize=26;" edge="1" parent="1" source="CcnFUKyNW-bvwAYM3Ugy-2" target="CcnFUKyNW-bvwAYM3Ugy-5">
          <mxGeometry relative="1" as="geometry" />
        </mxCell>
        <mxCell id="CcnFUKyNW-bvwAYM3Ugy-2" value="根据url获取URI路径" style="rounded=0;whiteSpace=wrap;html=1;fontSize=26;" vertex="1" parent="1">
          <mxGeometry x="-50" y="130" width="330" height="140" as="geometry" />
        </mxCell>
        <mxCell id="CcnFUKyNW-bvwAYM3Ugy-5" value="获取到文件名下的类,&lt;br&gt;通过properties 的方式&lt;br&gt;定义类的名称,尽量使用&lt;br&gt;接口来定义方法的使用" style="rounded=0;whiteSpace=wrap;html=1;fontSize=26;" vertex="1" parent="1">
          <mxGeometry x="-50" y="280" width="330" height="140" as="geometry" />
        </mxCell>
        <mxCell id="CcnFUKyNW-bvwAYM3Ugy-7" value="判断一个类是否是自己包装自己通过构造器判断" style="rounded=0;whiteSpace=wrap;html=1;fontSize=19;" vertex="1" parent="1">
          <mxGeometry x="580" y="-30" width="240" height="90" as="geometry" />
        </mxCell>
        <mxCell id="CcnFUKyNW-bvwAYM3Ugy-8" value="动态编译&lt;br&gt;javaCompiler" style="rounded=0;whiteSpace=wrap;html=1;fontSize=26;" vertex="1" parent="1">
          <mxGeometry x="940" y="-20" width="270" height="80" as="geometry" />
        </mxCell>
        <mxCell id="CcnFUKyNW-bvwAYM3Ugy-9" value="动态编译&lt;br&gt;javassist" style="rounded=0;whiteSpace=wrap;html=1;fontSize=26;" vertex="1" parent="1">
          <mxGeometry x="1260" y="-20" width="270" height="80" as="geometry" />
        </mxCell>
        <mxCell id="CcnFUKyNW-bvwAYM3Ugy-10" value="&lt;pre style=&quot;background-color: rgb(255 , 255 , 255) ; font-family: &amp;#34;consolas&amp;#34; ; font-size: 12pt&quot;&gt;ServiceConfig&lt;/pre&gt;&lt;pre style=&quot;background-color: rgb(255 , 255 , 255) ; font-family: &amp;#34;consolas&amp;#34; ; font-size: 12pt&quot;&gt;服务端的配置中心&lt;/pre&gt;" style="rounded=0;whiteSpace=wrap;html=1;fontSize=19;" vertex="1" parent="1">
          <mxGeometry x="430" y="170" width="270" height="100" as="geometry" />
        </mxCell>
        <mxCell id="CcnFUKyNW-bvwAYM3Ugy-11" value="&lt;pre style=&quot;background-color: rgb(255 , 255 , 255) ; font-family: &amp;#34;consolas&amp;#34; ; font-size: 12pt&quot;&gt;ReferenceConfig&lt;/pre&gt;&lt;pre style=&quot;background-color: rgb(255 , 255 , 255) ; font-family: &amp;#34;consolas&amp;#34; ; font-size: 12pt&quot;&gt;客户端的配置中心&lt;/pre&gt;" style="rounded=0;whiteSpace=wrap;html=1;fontSize=19;" vertex="1" parent="1">
          <mxGeometry x="960" y="170" width="270" height="100" as="geometry" />
        </mxCell>
        <mxCell id="CcnFUKyNW-bvwAYM3Ugy-15" value="" style="edgeStyle=orthogonalEdgeStyle;rounded=0;orthogonalLoop=1;jettySize=auto;html=1;fontSize=19;" edge="1" parent="1" source="CcnFUKyNW-bvwAYM3Ugy-12" target="CcnFUKyNW-bvwAYM3Ugy-14">
          <mxGeometry relative="1" as="geometry" />
        </mxCell>
        <mxCell id="CcnFUKyNW-bvwAYM3Ugy-12" value="&lt;pre style=&quot;background-color: rgb(255 , 255 , 255) ; font-family: &amp;#34;consolas&amp;#34; ; font-size: 12pt&quot;&gt;DubboBootstrap&lt;/pre&gt;&lt;pre style=&quot;background-color: rgb(255 , 255 , 255) ; font-family: &amp;#34;consolas&amp;#34; ; font-size: 12pt&quot;&gt;启动类（单例）&lt;/pre&gt;" style="rounded=0;whiteSpace=wrap;html=1;fontSize=19;" vertex="1" parent="1">
          <mxGeometry x="670" y="330" width="270" height="110" as="geometry" />
        </mxCell>
        <mxCell id="CcnFUKyNW-bvwAYM3Ugy-20" style="edgeStyle=orthogonalEdgeStyle;rounded=0;orthogonalLoop=1;jettySize=auto;html=1;entryX=0.5;entryY=0;entryDx=0;entryDy=0;fontSize=19;" edge="1" parent="1" source="CcnFUKyNW-bvwAYM3Ugy-14" target="CcnFUKyNW-bvwAYM3Ugy-23">
          <mxGeometry relative="1" as="geometry">
            <mxPoint x="520" y="630" as="targetPoint" />
          </mxGeometry>
        </mxCell>
        <mxCell id="CcnFUKyNW-bvwAYM3Ugy-21" style="edgeStyle=orthogonalEdgeStyle;rounded=0;orthogonalLoop=1;jettySize=auto;html=1;fontSize=19;" edge="1" parent="1" source="CcnFUKyNW-bvwAYM3Ugy-14" target="CcnFUKyNW-bvwAYM3Ugy-18">
          <mxGeometry relative="1" as="geometry" />
        </mxCell>
        <mxCell id="CcnFUKyNW-bvwAYM3Ugy-22" style="edgeStyle=orthogonalEdgeStyle;rounded=0;orthogonalLoop=1;jettySize=auto;html=1;entryX=0.5;entryY=0;entryDx=0;entryDy=0;fontSize=19;" edge="1" parent="1" source="CcnFUKyNW-bvwAYM3Ugy-14" target="CcnFUKyNW-bvwAYM3Ugy-17">
          <mxGeometry relative="1" as="geometry" />
        </mxCell>
        <mxCell id="CcnFUKyNW-bvwAYM3Ugy-14" value="&lt;pre style=&quot;background-color: rgb(255 , 255 , 255) ; font-family: &amp;#34;consolas&amp;#34; ; font-size: 12pt&quot;&gt;init方法&lt;/pre&gt;" style="rounded=0;whiteSpace=wrap;html=1;fontSize=19;" vertex="1" parent="1">
          <mxGeometry x="670" y="470" width="270" height="110" as="geometry" />
        </mxCell>
        <mxCell id="CcnFUKyNW-bvwAYM3Ugy-17" value="ServiceRepository" style="rounded=0;whiteSpace=wrap;html=1;fontSize=19;" vertex="1" parent="1">
          <mxGeometry x="1000" y="620" width="180" height="60" as="geometry" />
        </mxCell>
        <mxCell id="CcnFUKyNW-bvwAYM3Ugy-18" value="Environment" style="rounded=0;whiteSpace=wrap;html=1;fontSize=19;" vertex="1" parent="1">
          <mxGeometry x="745" y="620" width="120" height="60" as="geometry" />
        </mxCell>
        <mxCell id="CcnFUKyNW-bvwAYM3Ugy-31" value="" style="edgeStyle=orthogonalEdgeStyle;rounded=0;orthogonalLoop=1;jettySize=auto;html=1;fontSize=19;" edge="1" parent="1" source="CcnFUKyNW-bvwAYM3Ugy-23" target="CcnFUKyNW-bvwAYM3Ugy-30">
          <mxGeometry relative="1" as="geometry" />
        </mxCell>
        <mxCell id="CcnFUKyNW-bvwAYM3Ugy-23" value="ConfigManager" style="rounded=0;whiteSpace=wrap;html=1;fontSize=19;" vertex="1" parent="1">
          <mxGeometry x="460" y="620" width="140" height="70" as="geometry" />
        </mxCell>
        <mxCell id="CcnFUKyNW-bvwAYM3Ugy-30" value="refreshAll&lt;br&gt;将所有的manage中的基本配置都进行填充" style="rounded=0;whiteSpace=wrap;html=1;fontSize=19;" vertex="1" parent="1">
          <mxGeometry x="400" y="860" width="260" height="100" as="geometry" />
        </mxCell>
        <mxCell id="CcnFUKyNW-bvwAYM3Ugy-26" value="&lt;pre style=&quot;background-color: rgb(255 , 255 , 255) ; font-family: &amp;#34;consolas&amp;#34; ; font-size: 12pt&quot;&gt;ConfigCenterConfig&lt;/pre&gt;&lt;pre style=&quot;background-color: rgb(255 , 255 , 255) ; font-family: &amp;#34;consolas&amp;#34; ; font-size: 12pt&quot;&gt;配置中心&lt;/pre&gt;" style="rounded=0;whiteSpace=wrap;html=1;fontSize=19;" vertex="1" parent="1">
          <mxGeometry x="1540" y="300" width="180" height="60" as="geometry" />
        </mxCell>
        <mxCell id="CcnFUKyNW-bvwAYM3Ugy-28" value="&lt;pre style=&quot;background-color: rgb(255 , 255 , 255) ; font-family: &amp;#34;consolas&amp;#34; ; font-size: 12pt&quot;&gt;&lt;span style=&quot;font-family: &amp;#34;consolas&amp;#34; ; font-size: 12pt&quot;&gt;startConfigCenter启动具体某些&lt;/span&gt;&lt;/pre&gt;&lt;pre style=&quot;background-color: rgb(255 , 255 , 255) ; font-family: &amp;#34;consolas&amp;#34; ; font-size: 12pt&quot;&gt;&lt;span style=&quot;font-family: &amp;#34;consolas&amp;#34; ; font-size: 12pt&quot;&gt;配置用的基本属性的填充&lt;/span&gt;&lt;/pre&gt;&lt;pre style=&quot;background-color: rgb(255 , 255 , 255) ; font-family: &amp;#34;consolas&amp;#34; ; font-size: 12pt&quot;&gt;&lt;span style=&quot;font-family: &amp;#34;consolas&amp;#34; ; font-size: 12pt&quot;&gt;根据基本的Enviroment中的配置&lt;/span&gt;&lt;/pre&gt;" style="rounded=0;whiteSpace=wrap;html=1;fontSize=19;" vertex="1" parent="1">
          <mxGeometry x="680" y="700" width="270" height="110" as="geometry" />
        </mxCell>
        <mxCell id="CcnFUKyNW-bvwAYM3Ugy-32" value="&lt;pre style=&quot;background-color: rgb(255 , 255 , 255) ; font-family: &amp;#34;consolas&amp;#34; ; font-size: 12pt&quot;&gt;gf&lt;/pre&gt;" style="rounded=0;whiteSpace=wrap;html=1;fontSize=19;" vertex="1" parent="1">
          <mxGeometry x="1470" y="540" width="140" height="70" as="geometry" />
        </mxCell>
        <mxCell id="CcnFUKyNW-bvwAYM3Ugy-33" value="&lt;pre style=&quot;background-color: rgb(255 , 255 , 255) ; font-family: &amp;#34;consolas&amp;#34; ; font-size: 12pt&quot;&gt;Application&lt;/pre&gt;" style="rounded=0;whiteSpace=wrap;html=1;fontSize=19;" vertex="1" parent="1">
          <mxGeometry x="1440" y="430" width="140" height="70" as="geometry" />
        </mxCell>
        <mxCell id="CcnFUKyNW-bvwAYM3Ugy-34" value="&lt;pre style=&quot;background-color: rgb(255 , 255 , 255) ; font-family: &amp;#34;consolas&amp;#34; ; font-size: 12pt&quot;&gt;Protocols&lt;/pre&gt;" style="rounded=0;whiteSpace=wrap;html=1;fontSize=19;" vertex="1" parent="1">
          <mxGeometry x="1660" y="520" width="140" height="70" as="geometry" />
        </mxCell>
        <mxCell id="CcnFUKyNW-bvwAYM3Ugy-35" value="&lt;pre style=&quot;background-color: rgb(255 , 255 , 255) ; font-family: &amp;#34;consolas&amp;#34; ; font-size: 12pt&quot;&gt;Module&lt;/pre&gt;" style="rounded=0;whiteSpace=wrap;html=1;fontSize=19;" vertex="1" parent="1">
          <mxGeometry x="1470" y="650" width="140" height="70" as="geometry" />
        </mxCell>
        <mxCell id="CcnFUKyNW-bvwAYM3Ugy-36" value="&lt;pre style=&quot;background-color: rgb(255 , 255 , 255) ; font-family: &amp;#34;consolas&amp;#34; ; font-size: 12pt&quot;&gt;Consumers&lt;/pre&gt;" style="rounded=0;whiteSpace=wrap;html=1;fontSize=19;" vertex="1" parent="1">
          <mxGeometry x="1880" y="650" width="140" height="70" as="geometry" />
        </mxCell>
        <mxCell id="CcnFUKyNW-bvwAYM3Ugy-37" value="&lt;pre style=&quot;background-color: rgb(255 , 255 , 255) ; font-family: &amp;#34;consolas&amp;#34; ; font-size: 12pt&quot;&gt;Providers&lt;/pre&gt;" style="rounded=0;whiteSpace=wrap;html=1;fontSize=19;" vertex="1" parent="1">
          <mxGeometry x="1900" y="520" width="140" height="70" as="geometry" />
        </mxCell>
        <mxCell id="CcnFUKyNW-bvwAYM3Ugy-38" value="&lt;pre style=&quot;background-color: rgb(255 , 255 , 255) ; font-family: &amp;#34;consolas&amp;#34; ; font-size: 12pt&quot;&gt;Registries&lt;/pre&gt;" style="rounded=0;whiteSpace=wrap;html=1;fontSize=19;" vertex="1" parent="1">
          <mxGeometry x="1890" y="430" width="140" height="70" as="geometry" />
        </mxCell>
      </root>
    </mxGraphModel>
  </diagram>
</mxfile>
